<!DOCTYPE svg PUBLIC "-//W3C//DTD SVG 1.1//EN" "http://www.w3.org/Graphics/SVG/1.1/DTD/svg11.dtd">
<!-- Uploaded to: SVG Repo, www.svgrepo.com, Transformed by: SVG Repo Mixer Tools -->
<svg height="800px" width="800px" version="1.1" id="Layer_1" xmlns="http://www.w3.org/2000/svg" xmlns:xlink="http://www.w3.org/1999/xlink" viewBox="0 0 512 512" xml:space="preserve" fill="#000000">
<g id="SVGRepo_bgCarrier" stroke-width="0"/>
<g id="SVGRepo_tracerCarrier" stroke-linecap="round" stroke-linejoin="round"/>
<g id="SVGRepo_iconCarrier"> <path style="fill:#ff0000;" d="M494.933,311.467v25.6h-19.797c-13.483-30.891-44.203-51.2-78.251-51.2s-64.768,20.309-78.165,51.2 H204.8V123.733c0-9.387,7.68-17.067,17.067-17.067h256v153.6h-8.533c-4.693,0-8.533,3.84-8.533,8.533s3.84,8.533,8.533,8.533h8.533 v25.6c0,4.693,3.84,8.533,8.533,8.533H494.933z"/> <g> <polygon style="fill:#FFFFFF;" points="119.467,183.467 119.467,243.2 24.491,243.2 64.341,183.467 "/> <circle style="fill:#FFFFFF;" cx="110.933" cy="371.2" r="34.133"/> <path style="fill:#FFFFFF;" d="M431.019,371.2c0,18.859-15.275,34.133-34.133,34.133c-18.773,0-34.133-15.275-34.133-34.133 c0-18.859,15.36-34.133,34.133-34.133C415.744,337.067,431.019,352.341,431.019,371.2z"/> </g> <path d="M110.933,320c-28.245,0-51.2,22.955-51.2,51.2s22.955,51.2,51.2,51.2s51.2-22.955,51.2-51.2 C162.133,342.955,139.179,320,110.933,320z M110.933,405.333c-18.859,0-34.133-15.275-34.133-34.133 c0-18.859,15.275-34.133,34.133-34.133s34.133,15.275,34.133,34.133C145.067,390.059,129.792,405.333,110.933,405.333z"/> <path d="M396.885,320c-28.16,0-51.2,22.955-51.2,51.2s23.04,51.2,51.2,51.2c28.245,0,51.2-22.955,51.2-51.2 C448.085,342.955,425.131,320,396.885,320z M396.885,405.333c-18.773,0-34.133-15.275-34.133-34.133 c0-18.859,15.36-34.133,34.133-34.133c18.859,0,34.133,15.275,34.133,34.133C431.019,390.059,415.744,405.333,396.885,405.333z"/> <path style="fill:#ff0000;" d="M153.6,183.467v112.811c-15.104-7.083-33.536-10.411-47.019-10.411 c-34.048,0-64.768,20.309-78.251,51.2H17.067V294.4H25.6c4.693,0,8.533-3.84,8.533-8.533s-3.84-8.533-8.533-8.533h-8.533v-17.067 H128c4.693,0,8.533-3.84,8.533-8.533v-68.267H153.6z"/> <path d="M503.467,294.4h-8.533V98.133c0-4.693-3.84-8.533-8.533-8.533H221.867c-18.859,0-34.133,15.275-34.133,34.133v179.2h-17.067 v-128c0-4.693-3.84-8.533-8.533-8.533h-102.4c-2.816,0-5.547,1.451-7.083,3.84l-51.2,76.8C0.512,248.405,0,250.027,0,251.733V345.6 c0,4.693,3.84,8.533,8.533,8.533h25.6c3.584,0,6.827-2.304,8.021-5.717c9.643-27.221,35.499-45.483,64.427-45.483 c17.92,0,39.509,6.485,50.176,15.189c1.536,1.195,3.499,1.877,5.376,1.877h25.6v25.6c0,4.693,3.84,8.533,8.533,8.533h128.256 c3.584,0,6.827-2.304,8.021-5.717c9.643-27.221,35.499-45.483,64.341-45.483c28.757,0,54.528,18.091,64.256,45.056 c1.024,3.584,4.352,6.144,8.192,6.144h34.133c4.693,0,8.533-3.84,8.533-8.533v-42.667C512,298.24,508.16,294.4,503.467,294.4z M64.341,183.467h55.125V243.2H24.491L64.341,183.467z M153.6,296.277c-15.104-7.083-33.536-10.411-47.019-10.411 c-34.048,0-64.768,20.309-78.251,51.2H17.067V294.4H25.6c4.693,0,8.533-3.84,8.533-8.533s-3.84-8.533-8.533-8.533h-8.533v-17.067 H128c4.693,0,8.533-3.84,8.533-8.533v-68.267H153.6V296.277z M494.933,337.067h-19.797c-13.483-30.891-44.203-51.2-78.251-51.2 s-64.768,20.309-78.165,51.2H204.8V123.733c0-9.387,7.68-17.067,17.067-17.067h256v153.6h-8.533c-4.693,0-8.533,3.84-8.533,8.533 s3.84,8.533,8.533,8.533h8.533v25.6c0,4.693,3.84,8.533,8.533,8.533h8.533V337.067z"/> <g> <path style="fill:#F4F4F4;" d="M122.837,339.319c5.76,6.11,9.344,14.285,9.344,23.347c0,18.859-15.275,34.133-34.133,34.133 c-4.207,0-8.183-0.862-11.904-2.253c6.221,6.605,14.993,10.786,24.789,10.786c18.859,0,34.133-15.275,34.133-34.133 C145.067,356.548,135.799,344.158,122.837,339.319z"/> <path style="fill:#F4F4F4;" d="M408.789,339.319c5.76,6.11,9.344,14.285,9.344,23.347c0,18.859-15.275,34.133-34.133,34.133 c-4.19,0-8.158-0.862-11.878-2.253c6.238,6.605,15.01,10.786,24.764,10.786c18.859,0,34.133-15.275,34.133-34.133 C431.019,356.548,421.751,344.158,408.789,339.319z"/> <polygon style="fill:#F4F4F4;" points="103.509,183.467 103.509,226.133 35.874,226.133 24.491,243.2 119.467,243.2 119.467,183.467 "/> </g> <g> <path style="fill:#283593;" d="M204.8,320v17.067h113.92c2.679-6.187,6.221-11.81,10.189-17.067H204.8z"/> <path style="fill:#283593;" d="M469.333,260.267h8.533v-153.6H460.8V268.8C460.8,264.107,464.64,260.267,469.333,260.267z"/> <path style="fill:#283593;" d="M486.4,311.467c-4.693,0-8.533-3.84-8.533-8.533v-25.6h-8.533c-4.693,0-8.533-3.84-8.533-8.533 v34.133c0,4.693,3.84,8.533,8.533,8.533l0,0V320h-4.42c3.968,5.257,7.526,10.88,10.223,17.067h2.731h17.067V320v-8.533H486.4z"/> </g> </g>
</svg>